<svg version="1.2" xmlns="http://www.w3.org/2000/svg" viewBox="0 0 1773 2074" width="1773" height="2074">
	<title>css-3-svg</title>
	<style>
		.s0 { fill: #264de4 } 
		.s1 { fill: #2965f1 } 
		.s2 { fill: #ebebeb } 
		.s3 { fill: #ffffff } 
	</style>
	<path id="Layer" class="s0" d="m885.4 2067.7l-721.5-200.3-160.7-1803.3h1766.7l-160.9 1803z"/>
	<path id="Layer" class="s1" d="m1471.1 1752.3l137.5-1540.8h-722.1v1702.9z"/>
	<path id="Layer" class="s2" d="m371.7 880.3l19.8 221.2h494.9v-221.2zm-39.8-447.6l20.1 221.2h534.5v-221.2zm554.6 1022l-1 0.3-246.3-66.5-15.7-176.4h-222l31 347.3 453.1 125.8 1-0.3v-230.2z"/>
	<path id="Layer" class="s3" d="m1399.8 880.3l39.9-447.7h-554v221.2h311.6l-20.1 226.5h-291.5v221.2h272.3l-25.7 286.8-246.7 66.6v230.1l453.4-125.7 3.3-37.4 52-582.3z"/>
</svg>