<svg
              xmlns="http://www.w3.org/2000/svg"
              data-name="Layer 1"
              viewBox="0 0 168 168"
              id="server"
            >
              <path
                fill="#2d4356"
                d="M28 58h112a8.023 8.023 0 0 0 8-8V28a8.023 8.023 0 0 0-8-8H28a8.023 8.023 0 0 0-8 8v22a8.023 8.023 0 0 0 8 8zm-4-30a4.004 4.004 0 0 1 4-4h112a4.004 4.004 0 0 1 4 4v22a4.004 4.004 0 0 1-4 4H28a4.004 4.004 0 0 1-4-4zm4 72h112a8.023 8.023 0 0 0 8-8V70a8.023 8.023 0 0 0-8-8H28a8.023 8.023 0 0 0-8 8v22a8.023 8.023 0 0 0 8 8zm-4-30a4.004 4.004 0 0 1 4-4h112a4.004 4.004 0 0 1 4 4v22a4.004 4.004 0 0 1-4 4H28a4.004 4.004 0 0 1-4-4z"
              ></path>
              <path
                fill="#2d4356"
                d="M39 48a9 9 0 1 0-9-9 9 9 0 0 0 9 9zm0-14a5 5 0 1 1-5 5 5.006 5.006 0 0 1 5-5zm24 14a9 9 0 1 0-9-9 9 9 0 0 0 9 9zm0-14a5 5 0 1 1-5 5 5.006 5.006 0 0 1 5-5zm17 7h56a2 2 0 0 0 0-4H80a2 2 0 0 0 0 4zM39 90a9 9 0 1 0-9-9 9 9 0 0 0 9 9zm0-14a5 5 0 1 1-5 5 5.006 5.006 0 0 1 5-5zm24 14a9 9 0 1 0-9-9 9 9 0 0 0 9 9zm0-14a5 5 0 1 1-5 5 5.006 5.006 0 0 1 5-5zm-24 38a9 9 0 1 0 9 9 9 9 0 0 0-9-9zm0 14a5 5 0 1 1 5-5 5.006 5.006 0 0 1-5 5zm24-14a9 9 0 1 0 9 9 9 9 0 0 0-9-9zm0 14a5 5 0 1 1 5-5 5.006 5.006 0 0 1-5 5zm73-7H80a2 2 0 0 0 0 4h56a2 2 0 0 0 0-4zM160 9a3 3 0 1 0-3 3 3.003 3.003 0 0 0 3-3zm-4.5 0a1.5 1.5 0 1 1 1.5 1.5 1.501 1.501 0 0 1-1.5-1.5zM67 9a3 3 0 1 0-3-3 3.003 3.003 0 0 0 3 3zm0-4.5A1.5 1.5 0 1 1 65.5 6 1.501 1.501 0 0 1 67 4.5zM144 16a2 2 0 1 0-2-2 2.002 2.002 0 0 0 2 2zm0-3a1 1 0 1 1-1 1 1.001 1.001 0 0 1 1-1zm-54 4a2 2 0 1 0-2-2 2.002 2.002 0 0 0 2 2zm0-3a1 1 0 1 1-1 1 1.001 1.001 0 0 1 1-1zm-73 3a2 2 0 1 0-2 2 2.002 2.002 0 0 0 2-2zm-3 0a1 1 0 1 1 1 1 1.001 1.001 0 0 1-1-1z"
              ></path>
              <circle cx="2" cy="146" r="2" fill="#2d4356"></circle>
              <path
                fill="#2d4356"
                d="M11 144H8a2 2 0 0 0 0 4h3a2 2 0 0 0 0-4zm149 0h-3a2 2 0 0 0 0 4h3a2 2 0 0 0 0-4z"
              ></path>
              <circle cx="166" cy="146" r="2" fill="#2d4356"></circle>
              <path
                fill="#2d4356"
                d="M150.721 144H132v-2h8a8.023 8.023 0 0 0 8-8v-22a8.023 8.023 0 0 0-8-8H28a8.023 8.023 0 0 0-8 8v22a8.023 8.023 0 0 0 8 8h8v2H17.279a2.017 2.017 0 1 0 0 4H150.72a2.017 2.017 0 1 0 0-4ZM28 138a4.004 4.004 0 0 1-4-4v-22a4.004 4.004 0 0 1 4-4h112a4.004 4.004 0 0 1 4 4v22a4.004 4.004 0 0 1-4 4Zm12 6v-2h18v2Zm22 0v-2h44v2Zm48 0v-2h18v2Z"
              ></path>
              <path
                fill="#0bceb2"
                d="M136 79H80a2 2 0 0 0 0 4h56a2 2 0 0 0 0-4ZM5.583 32.011l1.487-1.955-.939-.532-.954 2.19h-.032l-.97-2.175-.955.548 1.471 1.909v.031l-2.3-.297v1.064l2.316-.297v.031L3.22 34.436l.892.564 1.018-2.206h.03l.939 2.19.986-.563-1.502-1.878v-.031l2.362.282V31.73l-2.362.312v-.031zM41.281 3.769l.856-1.126-.54-.306-.55 1.261h-.018l-.558-1.253-.551.316.848 1.099v.018l-1.325-.171v.613l1.334-.171v.018l-.857 1.099.514.324.586-1.27h.018l.54 1.261.568-.324-.865-1.082v-.018l1.36.163v-.613l-1.36.18v-.018zM159 28.713V27.67l-2.317.307v-.031l1.459-1.918-.921-.522-.936 2.148h-.032l-.951-2.133-.937.538 1.443 1.872v.031l-2.256-.292v1.043l2.271-.291v.031l-1.458 1.872.875.553.998-2.165h.03l.921 2.149.967-.552-1.473-1.842v-.031l2.317.276zM115.702 8.023l-1.258 1.615.754.477.862-1.867h.025l.795 1.853.834-.476-1.271-1.589v-.027l1.999.239v-.9l-1.999.264v-.026l1.258-1.655-.794-.45-.808 1.853h-.026l-.821-1.84-.808.464 1.245 1.615v.026l-1.947-.251v.9l1.96-.252v.027zM118.154 153h-8.308a2.006 2.006 0 0 0 0 4h8.308a2.006 2.006 0 0 0 0-4zm-60 0h-8.308a2.006 2.006 0 0 0 0 4h8.308a2.006 2.006 0 0 0 0-4zM104 153H64a2 2 0 0 0 0 4h15.94v2H72a2 2 0 0 0 0 4h25a2 2 0 0 0 0-4h-8.94v-2H104a2 2 0 0 0 0-4z"
              ></path>
            </svg>