<svg
              xmlns="http://www.w3.org/2000/svg"
              width="512"
              height="512"
              enable-background="new 0 0 512 512"
              viewBox="0 0 512 512"
              id="cloud-server"
            >
              <line
                x1="486"
                x2="45"
                y1="495"
                y2="495"
                fill="none"
                stroke="#49476A"
                stroke-linecap="round"
                stroke-linejoin="round"
                stroke-miterlimit="10"
                stroke-width="10"
              ></line>
              <line
                x1="18"
                x2="27"
                y1="495"
                y2="495"
                fill="none"
                stroke="#49476A"
                stroke-linecap="round"
                stroke-linejoin="round"
                stroke-miterlimit="10"
                stroke-width="10"
              ></line>
              <path
                fill="none"
                stroke="#49476A"
                stroke-linecap="round"
                stroke-linejoin="round"
                stroke-miterlimit="10"
                stroke-width="10"
                d="M446.44 141.72V219c0 6.1-4.94 11.04-11.04 11.04H76.6c-6.1 0-11.04-4.94-11.04-11.04v-41.16h165.53c.62 0 1.23-.01 1.85-.04 3.86-.18 7.59-.92 11.09-2.13.15-.06.31-.11.46-.16.01-.01.02-.02.03-.02 4.06-1.5 7.87-3.64 11.21-6.24.48-.39.96-.77 1.42-1.17.02-.01.04-.02.05-.03.43-.37.859-.76 1.27-1.15.5-.46.99-.95 1.471-1.44 7.54-7.77 12.199-18.57 12.199-30.51 0-1.44-.069-2.87-.199-4.27H435.4C441.5 130.68 446.44 135.62 446.44 141.72zM65.56 351.48c0 6.096 4.942 11.039 11.04 11.039h358.8c6.096 0 11.039-4.943 11.039-11.039v-77.279c0-6.098-4.943-11.041-11.039-11.041H76.6c-6.098 0-11.04 4.943-11.04 11.041V351.48zM65.56 483.961c0 6.096 4.942 11.039 11.04 11.039h358.8c6.096 0 11.039-4.943 11.039-11.039V406.68c0-6.096-4.943-11.039-11.039-11.039H76.6c-6.098 0-11.04 4.943-11.04 11.039V483.961z"
              ></path>
              <path
                fill="none"
                stroke="#49476A"
                stroke-linecap="round"
                stroke-linejoin="round"
                stroke-miterlimit="10"
                stroke-width="10"
                d="M310.279 348.721v13.799H86.72v-13.799c0-6.1 4.941-11.041 11.04-11.041h201.48C305.34 337.68 310.279 342.621 310.279 348.721zM310.279 216.24v13.8H86.72v-13.8c0-6.1 4.941-11.04 11.04-11.04h201.48C305.34 205.2 310.279 210.141 310.279 216.24zM310.279 481.201V495H86.72v-13.799c0-6.1 4.941-11.041 11.04-11.041h201.48C305.34 470.16 310.279 475.102 310.279 481.201z"
              ></path>
              <circle
                cx="401.36"
                cy="180.36"
                r="16.56"
                fill="none"
                stroke="#49476A"
                stroke-linecap="round"
                stroke-linejoin="round"
                stroke-miterlimit="10"
                stroke-width="10"
              ></circle>
              <circle
                cx="401.36"
                cy="312.84"
                r="16.56"
                fill="none"
                stroke="#49476A"
                stroke-linecap="round"
                stroke-linejoin="round"
                stroke-miterlimit="10"
                stroke-width="10"
              ></circle>
              <circle
                cx="401.36"
                cy="445.32"
                r="16.56"
                fill="none"
                stroke="#49476A"
                stroke-linecap="round"
                stroke-linejoin="round"
                stroke-miterlimit="10"
                stroke-width="10"
              ></circle>
              <circle
                cx="107.42"
                cy="421.857"
                r="4.14"
                fill="none"
                stroke="#49476A"
                stroke-linecap="round"
                stroke-linejoin="round"
                stroke-miterlimit="10"
                stroke-width="10"
              ></circle>
              <circle
                cx="107.42"
                cy="446.697"
                r="4.14"
                fill="none"
                stroke="#49476A"
                stroke-linecap="round"
                stroke-linejoin="round"
                stroke-miterlimit="10"
                stroke-width="10"
              ></circle>
              <circle
                cx="132.26"
                cy="421.857"
                r="4.14"
                fill="none"
                stroke="#49476A"
                stroke-linecap="round"
                stroke-linejoin="round"
                stroke-miterlimit="10"
                stroke-width="10"
              ></circle>
              <circle
                cx="132.26"
                cy="446.697"
                r="4.14"
                fill="none"
                stroke="#49476A"
                stroke-linecap="round"
                stroke-linejoin="round"
                stroke-miterlimit="10"
                stroke-width="10"
              ></circle>
              <circle
                cx="157.1"
                cy="421.857"
                r="4.14"
                fill="none"
                stroke="#49476A"
                stroke-linecap="round"
                stroke-linejoin="round"
                stroke-miterlimit="10"
                stroke-width="10"
              ></circle>
              <circle
                cx="157.1"
                cy="446.697"
                r="4.14"
                fill="none"
                stroke="#49476A"
                stroke-linecap="round"
                stroke-linejoin="round"
                stroke-miterlimit="10"
                stroke-width="10"
              ></circle>
              <circle
                cx="215.06"
                cy="421.857"
                r="4.14"
                fill="none"
                stroke="#49476A"
                stroke-linecap="round"
                stroke-linejoin="round"
                stroke-miterlimit="10"
                stroke-width="10"
              ></circle>
              <circle
                cx="215.06"
                cy="446.697"
                r="4.14"
                fill="none"
                stroke="#49476A"
                stroke-linecap="round"
                stroke-linejoin="round"
                stroke-miterlimit="10"
                stroke-width="10"
              ></circle>
              <circle
                cx="239.9"
                cy="421.857"
                r="4.14"
                fill="none"
                stroke="#49476A"
                stroke-linecap="round"
                stroke-linejoin="round"
                stroke-miterlimit="10"
                stroke-width="10"
              ></circle>
              <circle
                cx="239.9"
                cy="446.697"
                r="4.14"
                fill="none"
                stroke="#49476A"
                stroke-linecap="round"
                stroke-linejoin="round"
                stroke-miterlimit="10"
                stroke-width="10"
              ></circle>
              <circle
                cx="264.74"
                cy="421.857"
                r="4.14"
                fill="none"
                stroke="#49476A"
                stroke-linecap="round"
                stroke-linejoin="round"
                stroke-miterlimit="10"
                stroke-width="10"
              ></circle>
              <circle
                cx="264.74"
                cy="446.697"
                r="4.14"
                fill="none"
                stroke="#49476A"
                stroke-linecap="round"
                stroke-linejoin="round"
                stroke-miterlimit="10"
                stroke-width="10"
              ></circle>
              <circle
                cx="107.42"
                cy="288.453"
                r="4.14"
                fill="none"
                stroke="#49476A"
                stroke-linecap="round"
                stroke-linejoin="round"
                stroke-miterlimit="10"
                stroke-width="10"
              ></circle>
              <circle
                cx="107.42"
                cy="313.295"
                r="4.14"
                fill="none"
                stroke="#49476A"
                stroke-linecap="round"
                stroke-linejoin="round"
                stroke-miterlimit="10"
                stroke-width="10"
              ></circle>
              <circle
                cx="132.26"
                cy="288.453"
                r="4.14"
                fill="none"
                stroke="#49476A"
                stroke-linecap="round"
                stroke-linejoin="round"
                stroke-miterlimit="10"
                stroke-width="10"
              ></circle>
              <circle
                cx="132.26"
                cy="313.295"
                r="4.14"
                fill="none"
                stroke="#49476A"
                stroke-linecap="round"
                stroke-linejoin="round"
                stroke-miterlimit="10"
                stroke-width="10"
              ></circle>
              <circle
                cx="157.1"
                cy="288.453"
                r="4.14"
                fill="none"
                stroke="#49476A"
                stroke-linecap="round"
                stroke-linejoin="round"
                stroke-miterlimit="10"
                stroke-width="10"
              ></circle>
              <circle
                cx="157.1"
                cy="313.295"
                r="4.14"
                fill="none"
                stroke="#49476A"
                stroke-linecap="round"
                stroke-linejoin="round"
                stroke-miterlimit="10"
                stroke-width="10"
              ></circle>
              <circle
                cx="215.06"
                cy="288.453"
                r="4.14"
                fill="none"
                stroke="#49476A"
                stroke-linecap="round"
                stroke-linejoin="round"
                stroke-miterlimit="10"
                stroke-width="10"
              ></circle>
              <circle
                cx="215.06"
                cy="313.295"
                r="4.14"
                fill="none"
                stroke="#49476A"
                stroke-linecap="round"
                stroke-linejoin="round"
                stroke-miterlimit="10"
                stroke-width="10"
              ></circle>
              <circle
                cx="239.9"
                cy="288.453"
                r="4.14"
                fill="none"
                stroke="#49476A"
                stroke-linecap="round"
                stroke-linejoin="round"
                stroke-miterlimit="10"
                stroke-width="10"
              ></circle>
              <circle
                cx="239.9"
                cy="313.295"
                r="4.14"
                fill="none"
                stroke="#49476A"
                stroke-linecap="round"
                stroke-linejoin="round"
                stroke-miterlimit="10"
                stroke-width="10"
              ></circle>
              <circle
                cx="264.74"
                cy="288.453"
                r="4.14"
                fill="none"
                stroke="#49476A"
                stroke-linecap="round"
                stroke-linejoin="round"
                stroke-miterlimit="10"
                stroke-width="10"
              ></circle>
              <circle
                cx="264.74"
                cy="313.295"
                r="4.14"
                fill="none"
                stroke="#49476A"
                stroke-linecap="round"
                stroke-linejoin="round"
                stroke-miterlimit="10"
                stroke-width="10"
              ></circle>
              <rect
                width="298.08"
                height="33.12"
                x="106.96"
                y="230.04"
                fill="none"
                stroke="#49476A"
                stroke-linecap="round"
                stroke-linejoin="round"
                stroke-miterlimit="10"
                stroke-width="10"
              ></rect>
              <rect
                width="298.08"
                height="33.121"
                x="106.96"
                y="362.52"
                fill="none"
                stroke="#49476A"
                stroke-linecap="round"
                stroke-linejoin="round"
                stroke-miterlimit="10"
                stroke-width="10"
              ></rect>
              <g>
                <path
                  fill="none"
                  stroke="#494769"
                  stroke-linecap="round"
                  stroke-linejoin="round"
                  stroke-miterlimit="10"
                  stroke-width="10"
                  d="
			M255.73,169.25c-3.36,2.65-7.14,4.77-11.21,6.24C248.58,173.99,252.39,171.85,255.73,169.25z"
                ></path>
                <path
                  fill="none"
                  stroke="#494769"
                  stroke-linecap="round"
                  stroke-linejoin="round"
                  stroke-miterlimit="10"
                  stroke-width="10"
                  d="M272.14 134.95c0 11.94-4.659 22.74-12.199 30.51-.48.49-.971.98-1.471 1.44-.41.39-.84.78-1.27 1.15-.01.01-.03.02-.05.03-.46.4-.94.78-1.42 1.17-3.34 2.6-7.15 4.74-11.21 6.24-.01 0-.02.01-.03.02-.15.05-.31.1-.46.16-3.5 1.21-7.23 1.95-11.09 2.13-.62.03-1.23.04-1.85.04H49.11c-12.4 0-23.12-7.97-28.11-19.22-1.92-4.34-3-9.15-3-14.19 0-18.13 13.93-33.12 31.11-33.12.63 0 1.23.03 1.85.06 4.45-26.16 26.1-46.22 52.14-46.22 1.17 0 2.33.03 3.48.13h.01c1.86.14 3.69.37 5.49.69-1.81-.33-3.63-.57-5.49-.7 12.25-18.74 32.73-31.09 55.94-31.09 32.7 0 59.99 24.24 66.45 56.58.1.45.18.9.26 1.35.27-.01.54-.02.8-.03.35 0 .71-.01 1.05-.01 21.29 0 38.8 16.94 40.851 38.61C272.07 132.08 272.14 133.51 272.14 134.95zM230.443 105.696c0-4.583-.41-9.22-1.202-13.582"
                ></path>
                <path
                  fill="none"
                  stroke="#494769"
                  stroke-linecap="round"
                  stroke-linejoin="round"
                  stroke-miterlimit="10"
                  stroke-width="10"
                  d="M244.03 175.67c-3.9 1.39-8.03 2.17-12.14 2.17h-.8c.62 0 1.23-.01 1.85-.04C236.8 177.62 240.53 176.88 244.03 175.67zM112.082 65.966c1.798.33 3.578.757 5.313 1.282M52.46 111.517c-.499-.062-1.005-.107-1.504-.142M233.229 119.215c-2.136-7.992-2.786-13.519-2.786-13.519 0-4.583-.41-9.22-1.202-13.582"
                ></path>
                <path
                  fill="none"
                  stroke="#494769"
                  stroke-linecap="round"
                  stroke-linejoin="round"
                  stroke-miterlimit="10"
                  stroke-width="10"
                  d="
			M112.082,65.966c1.798,0.33,3.578,0.757,5.313,1.282h0.009"
                ></path>
              </g>
              <g>
                <line
                  x1="144"
                  x2="144"
                  y1="78.84"
                  y2="132.84"
                  fill="none"
                  stroke="#49476A"
                  stroke-linecap="round"
                  stroke-linejoin="round"
                  stroke-miterlimit="10"
                  stroke-width="10"
                ></line>
                <line
                  x1="144"
                  x2="144"
                  y1="154.34"
                  y2="150.84"
                  fill="none"
                  stroke="#49476A"
                  stroke-linecap="round"
                  stroke-linejoin="round"
                  stroke-miterlimit="10"
                  stroke-width="10"
                ></line>
              </g>
              <g>
                <path
                  fill="#49476A"
                  d="M446.141 320c-1.245 0-2.491-.462-3.461-1.392-1.992-1.912-2.058-5.077-.146-7.07 1.127-1.174 2.242-2.369 3.313-3.551 1.854-2.046 5.017-2.202 7.063-.346 2.046 1.854 2.2 5.017.346 7.063-1.135 1.251-2.313 2.516-3.505 3.758C448.768 319.484 447.455 320 446.141 320zM462.361 300.454c-1.007 0-2.023-.303-2.904-.933-2.246-1.606-2.766-4.729-1.159-6.976 1.924-2.69 3.784-5.46 5.53-8.231 1.472-2.337 4.558-3.038 6.896-1.565 2.336 1.472 3.037 4.559 1.565 6.896-1.85 2.937-3.819 5.869-5.856 8.718C465.456 299.728 463.92 300.454 462.361 300.454zM477.918 274.111c-.723 0-1.457-.157-2.153-.49-2.491-1.191-3.545-4.177-2.354-6.668 1.418-2.965 2.769-6.016 4.014-9.066 1.044-2.556 3.959-3.784 6.519-2.74 2.557 1.043 3.783 3.962 2.739 6.519-1.318 3.23-2.748 6.461-4.25 9.602C481.574 273.063 479.784 274.111 477.918 274.111zM488.649 245.462c-.442 0-.892-.059-1.339-.183-2.661-.738-4.22-3.493-3.482-6.154.877-3.165 1.673-6.403 2.365-9.625.581-2.699 3.233-4.418 5.939-3.837 2.699.58 4.418 3.239 3.838 5.939-.733 3.413-1.577 6.843-2.506 10.195C492.852 244.011 490.84 245.462 488.649 245.462zM494.204 215.382c-.159 0-.319-.008-.48-.023-2.749-.263-4.766-2.704-4.503-5.453.313-3.277.534-6.604.657-9.891.103-2.759 2.397-4.929 5.183-4.81 2.76.104 4.913 2.424 4.81 5.184-.13 3.478-.363 7-.694 10.467C498.929 213.444 496.751 215.382 494.204 215.382zM494.468 184.799c-2.586 0-4.776-1.993-4.979-4.615-.253-3.279-.606-6.597-1.049-9.862-.372-2.736 1.546-5.256 4.282-5.627 2.735-.368 5.255 1.546 5.627 4.282.468 3.455.842 6.966 1.11 10.436.213 2.753-1.847 5.158-4.6 5.371C494.728 184.794 494.598 184.799 494.468 184.799zM489.467 154.627c-2.227 0-4.258-1.498-4.838-3.754-.82-3.187-1.747-6.392-2.752-9.525-.844-2.629.604-5.445 3.233-6.289 2.633-.845 5.444.604 6.288 3.233 1.065 3.318 2.046 6.712 2.914 10.087.688 2.674-.921 5.4-3.595 6.089C490.299 154.576 489.88 154.627 489.467 154.627zM479.274 125.78c-1.898 0-3.714-1.087-4.553-2.927-1.369-3.004-2.843-6.001-4.38-8.908-1.291-2.441-.358-5.466 2.082-6.757 2.441-1.29 5.468-.358 6.758 2.083 1.629 3.079 3.189 6.254 4.64 9.436 1.146 2.513.036 5.479-2.477 6.624C480.673 125.635 479.968 125.78 479.274 125.78zM464.192 99.146c-1.591 0-3.154-.757-4.124-2.167-1.864-2.709-3.836-5.403-5.86-8.008-1.694-2.181-1.301-5.322.88-7.016 2.181-1.695 5.321-1.3 7.017.879 2.143 2.757 4.229 5.609 6.202 8.477 1.565 2.275.99 5.388-1.285 6.953C466.156 98.861 465.169 99.146 464.192 99.146zM444.723 75.539c-1.295 0-2.589-.5-3.567-1.497-2.308-2.35-4.714-4.662-7.15-6.873-2.046-1.855-2.2-5.017-.346-7.063 1.854-2.044 5.016-2.202 7.063-.345 2.58 2.339 5.126 4.787 7.568 7.274 1.935 1.97 1.906 5.136-.064 7.071C447.253 75.063 445.987 75.539 444.723 75.539zM421.479 55.656c-1.007 0-2.023-.303-2.905-.934-2.673-1.912-5.44-3.772-8.225-5.529-2.335-1.474-3.034-4.562-1.561-6.897 1.473-2.335 4.563-3.034 6.896-1.561 2.947 1.86 5.877 3.829 8.707 5.853 2.246 1.606 2.764 4.729 1.157 6.976C424.573 54.929 423.037 55.656 421.479 55.656zM237.661 43.212c-1.795 0-3.529-.969-4.426-2.666-1.29-2.442-.355-5.467 2.086-6.756 3.083-1.628 6.255-3.187 9.427-4.631 2.514-1.145 5.478-.036 6.623 2.478 1.145 2.513.035 5.479-2.478 6.623-2.996 1.364-5.991 2.836-8.902 4.374C239.247 43.026 238.448 43.212 237.661 43.212zM395.158 40.104c-.724 0-1.458-.158-2.154-.491-2.967-1.42-6.012-2.769-9.05-4.011-2.556-1.044-3.781-3.963-2.737-6.52 1.045-2.557 3.963-3.782 6.521-2.737 3.218 1.315 6.442 2.744 9.583 4.247 2.491 1.192 3.544 4.178 2.352 6.669C398.813 39.056 397.023 40.104 395.158 40.104zM265.861 31.35c-2.115 0-4.079-1.353-4.76-3.475-.844-2.629.604-5.445 3.233-6.288 3.32-1.064 6.716-2.045 10.095-2.913 2.67-.686 5.399.923 6.087 3.598.688 2.674-.924 5.4-3.599 6.087-3.188.819-6.395 1.745-9.528 2.75C266.882 31.272 266.367 31.35 265.861 31.35zM366.537 29.375c-.442 0-.893-.06-1.34-.184-3.173-.88-6.411-1.677-9.627-2.37-2.699-.582-4.417-3.241-3.835-5.941.581-2.7 3.236-4.42 5.94-3.835 3.405.733 6.835 1.578 10.195 2.51 2.661.738 4.22 3.494 3.481 6.155C370.738 27.924 368.728 29.375 366.537 29.375zM295.701 24.6c-2.464 0-4.608-1.82-4.949-4.329-.37-2.736 1.547-5.255 4.283-5.626 3.449-.468 6.964-.84 10.446-1.108 2.743-.205 5.157 1.849 5.368 4.603.212 2.753-1.85 5.157-4.603 5.368-3.29.252-6.61.605-9.868 1.046C296.151 24.584 295.925 24.6 295.701 24.6zM336.465 23.81c-.16 0-.32-.008-.483-.023-3.269-.313-6.599-.536-9.895-.661-2.76-.105-4.912-2.427-4.807-5.187.104-2.758 2.395-4.927 5.186-4.807 3.488.133 7.011.368 10.471.7 2.748.263 4.763 2.705 4.5 5.454C341.188 21.873 339.012 23.81 336.465 23.81zM216.003 56.753c-1.541 0-3.06-.709-4.04-2.048-1.63-2.229-1.145-5.357 1.083-6.988 1.381-1.01 2.791-2.011 4.192-2.975 2.276-1.564 5.388-.991 6.954 1.284 1.565 2.274.991 5.388-1.284 6.954-1.322.91-2.654 1.855-3.958 2.809C218.062 56.439 217.028 56.753 216.003 56.753z"
                ></path>
              </g>
            </svg>